<svg id="Family" xmlns="http://www.w3.org/2000/svg" width="25" height="25" viewBox="0 0 25 25">
  <path id="Shape" d="M7.5,5A2.5,2.5,0,1,0,5,2.5,2.5,2.5,0,0,0,7.5,5ZM7.5.833A1.667,1.667,0,1,1,5.833,2.5,1.667,1.667,0,0,1,7.5.833Z" transform="translate(-2.917)" fill="#1cc9ed"/>
  <path id="Shape-2" data-name="Shape" d="M1.667,23.1v8.82a1.25,1.25,0,0,0,2.5,0V25.25H5v6.667a1.25,1.25,0,0,0,2.5,0V23.1a1.258,1.258,0,0,0,1.557-.672,1.137,1.137,0,0,0,.509.118l-.378,1.023a1.254,1.254,0,0,0,1.229,1.685v6.667a1.22,1.22,0,0,0,.365.879,1.253,1.253,0,0,0,2.135-.925V25.25h.833v6.667a1.22,1.22,0,0,0,.365.879,1.253,1.253,0,0,0,2.135-.925V25.727a1.235,1.235,0,0,0,.992.313l-.109.528a1.25,1.25,0,0,0,1.2,1.6v3.75a1.243,1.243,0,0,0,2.078.924,1.254,1.254,0,0,0,2.089-.97v-3.7A1.25,1.25,0,0,0,23.708,26.6l-.116-.557a1.25,1.25,0,0,0,1.359-1.587l-.875-3.1a2.087,2.087,0,0,0-2.005-1.519c-3.594,0-3.583-.059-4.13.177L16.212,15.36A2.09,2.09,0,0,0,14.258,14h-1.85a2.09,2.09,0,0,0-1.953,1.359L9.167,18.828V16.5a2.5,2.5,0,0,0-2.5-2.5H2.5A2.5,2.5,0,0,0,0,16.5v5.417A1.253,1.253,0,0,0,1.667,23.1Zm20.4-2.43a1.25,1.25,0,0,1,1.2.909l.875,3.108a.419.419,0,0,1-.3.522.408.408,0,0,1-.487-.258l-.458-1.879a.417.417,0,1,0-.81.2c.558,2.282.377,1.478.8,3.533a.417.417,0,0,1-.4.534.833.833,0,0,0-.833.833v3.7a.451.451,0,0,1-.382.458.417.417,0,0,1-.452-.413V27.75a.417.417,0,0,0-.833,0v4.121a.42.42,0,0,1-.713.333.4.4,0,0,1-.12-.288v-3.75a.833.833,0,0,0-.833-.833.42.42,0,0,1-.392-.565c.417-2.016.238-1.22.8-3.5a.417.417,0,1,0-.809-.2l-.458,1.878a.417.417,0,0,1-.785-.265l.875-3.105a1.25,1.25,0,0,1,1.2-.908ZM9.2,21.145l2.042-5.5a1.253,1.253,0,0,1,1.171-.815h1.85a1.254,1.254,0,0,1,1.172.816l1.8,4.855a2.06,2.06,0,0,0-.477.846c-.053.19-.037.167-.06.1-.007-.042.034.093-1.723-4.68a.417.417,0,0,0-.782.288c.305.828,1.833,4.976,2.138,5.8-.572,2.028-.424,1.5-.458,1.646a.833.833,0,0,0-.455.738v6.621a.42.42,0,0,1-.713.333.4.4,0,0,1-.12-.288V25.25a.833.833,0,0,0-.833-.833h-.833a.833.833,0,0,0-.833.833v6.621a.42.42,0,0,1-.713.333.4.4,0,0,1-.12-.288V25.25a.833.833,0,0,0-.833-.833h-.054a.42.42,0,0,1-.393-.564c1.424-3.861,1.083-2.931,2.5-6.792a.417.417,0,0,0-.782-.288L9.971,21.445a.417.417,0,0,1-.777-.3ZM.833,16.5A1.667,1.667,0,0,1,2.5,14.833H6.667A1.667,1.667,0,0,1,8.333,16.5v5.417a.417.417,0,1,1-.833,0v-3.75a.417.417,0,0,0-.833,0v13.75a.417.417,0,1,1-.833,0V25.25A.833.833,0,0,0,5,24.417H4.167a.833.833,0,0,0-.833.833v6.667a.417.417,0,1,1-.833,0V18.167a.417.417,0,0,0-.833,0v3.75a.417.417,0,1,1-.833,0Z" transform="translate(0 -8.167)" fill="#1cc9ed"/>
  <path id="Shape-3" data-name="Shape" d="M28.5,5A2.5,2.5,0,1,0,26,2.5,2.5,2.5,0,0,0,28.5,5Zm0-4.167A1.667,1.667,0,1,1,26.833,2.5,1.667,1.667,0,0,1,28.5.833Z" transform="translate(-15.167)" fill="#1cc9ed"/>
  <path id="Shape-4" data-name="Shape" d="M46.083,20.167A2.083,2.083,0,1,0,44,18.083,2.083,2.083,0,0,0,46.083,20.167Zm0-3.333a1.25,1.25,0,1,1-1.25,1.25A1.25,1.25,0,0,1,46.083,16.833Z" transform="translate(-25.667 -9.333)" fill="#1cc9ed"/>
</svg>
