<svg xmlns="http://www.w3.org/2000/svg" xmlns:xlink="http://www.w3.org/1999/xlink" width="25" height="25" viewBox="0 0 25 25">
  <defs>
    <clipPath id="clip-path">
      <rect id="Rectangle_22" data-name="Rectangle 22" width="25" height="25" transform="translate(-16865 -16778)" fill="#dffdff"/>
    </clipPath>
  </defs>
  <g id="Mask_Group_5" data-name="Mask Group 5" transform="translate(16865 16778)" clip-path="url(#clip-path)">
    <path id="Icon_awesome-instagram" data-name="Icon awesome-instagram" d="M12.5,9.646a6.4,6.4,0,1,0,4.535,1.874A6.409,6.409,0,0,0,12.5,9.646Zm0,10.576a4.167,4.167,0,1,1,4.167-4.167A4.167,4.167,0,0,1,12.5,20.222ZM20.667,9.384a1.491,1.491,0,1,1-.437-1.058A1.495,1.495,0,0,1,20.667,9.384ZM24.91,10.9a7.4,7.4,0,0,0-2.019-5.236,7.447,7.447,0,0,0-5.236-2.019c-2.063-.117-8.251-.117-10.314,0A7.436,7.436,0,0,0,2.106,5.662,7.423,7.423,0,0,0,.086,10.9c-.117,2.063-.117,8.251,0,10.314a7.4,7.4,0,0,0,2.019,5.236,7.457,7.457,0,0,0,5.236,2.019c2.063.117,8.251.117,10.314,0a7.4,7.4,0,0,0,5.236-2.019,7.447,7.447,0,0,0,2.019-5.236c.117-2.063.117-8.244,0-10.309Zm-2.665,12.52a4.219,4.219,0,0,1-2.38,2.38c-1.645.653-5.553.5-7.369.5s-5.729.145-7.369-.5a4.219,4.219,0,0,1-2.38-2.38c-.653-1.645-.5-5.553-.5-7.369s-.145-5.729.5-7.369a4.219,4.219,0,0,1,2.38-2.38c1.645-.653,5.553-.5,7.369-.5s5.729-.145,7.369.5a4.219,4.219,0,0,1,2.38,2.38c.653,1.645.5,5.553.5,7.369S22.9,21.784,22.245,23.424Z" transform="translate(-16864.998 -16781.557)" fill="#dffdff"/>
  </g>
</svg>
