<svg xmlns="http://www.w3.org/2000/svg" xmlns:xlink="http://www.w3.org/1999/xlink" width="70" height="70" viewBox="0 0 70 70">
  <defs>
    <clipPath id="clip-path">
      <rect id="Rectangle_45" data-name="Rectangle 45" width="70" height="70" transform="translate(360 1870)" fill="#1cc9ed"/>
    </clipPath>
  </defs>
  <g id="Mask_Group_21" data-name="Mask Group 21" transform="translate(-360 -1870)" clip-path="url(#clip-path)">
    <g id="_007-travel-2" data-name="007-travel-2" transform="translate(360 1870)">
      <path id="Path_90" data-name="Path 90" d="M73.247,52.256l-.841-.165-.518-.519A10.416,10.416,0,0,0,64.472,48.5H62.08L55.393,34.011a1.168,1.168,0,0,0-1.059-.678h-7A1.166,1.166,0,0,0,46.167,34.5v14H34.092l-4.359-9.807A1.167,1.167,0,0,0,28.667,38H22.833a1.166,1.166,0,0,0-1.167,1.167V54.333a1.168,1.168,0,0,0,.645,1.044l21,10.5a1.169,1.169,0,0,0,.522.123h2.333V81.167a1.166,1.166,0,0,0,1.167,1.167h7a1.168,1.168,0,0,0,1.1-.778L60.924,66H71.892a6.939,6.939,0,0,0,1.356-13.745ZM48.5,35.667h5.087L59.51,48.5H48.5ZM24,44.846,29.48,48.5H24Zm3.91-4.513,2.724,6.131L24,42.043V40.333ZM53.508,80H48.5V62.5H59.685ZM71.892,63.667H61.747l.686-1.945a1.167,1.167,0,0,0-1.1-1.555h-14a1.166,1.166,0,0,0-1.167,1.167v2.333H44.109L24,53.612V50.833H64.472a8.1,8.1,0,0,1,5.766,2.388l.77.77a1.159,1.159,0,0,0,.6.32l1.178.231a4.606,4.606,0,0,1-.895,9.125Z" transform="translate(-8.833 -12.333)" fill="#1cc9ed"/>
      <path id="Path_91" data-name="Path 91" d="M13.833,24.333h14a10.5,10.5,0,0,0,0-21h-10.5V5.667h10.5a8.167,8.167,0,1,1,0,16.333h-14a10.5,10.5,0,1,0,0,21V40.667a8.167,8.167,0,1,1,0-16.333Z" transform="translate(-3.333 -3.333)" fill="#1cc9ed"/>
      <path id="Path_92" data-name="Path 92" d="M16.667,3.333H19V5.667H16.667Z" transform="translate(-7.333 -3.333)" fill="#1cc9ed"/>
      <path id="Path_93" data-name="Path 93" d="M10,3.333h2.333V5.667H10Z" transform="translate(-5.333 -3.333)" fill="#1cc9ed"/>
      <path id="Path_94" data-name="Path 94" d="M3.333,3.333H5.667V5.667H3.333Z" transform="translate(-3.333 -3.333)" fill="#1cc9ed"/>
      <path id="Path_95" data-name="Path 95" d="M76.667,61.667H79V64H76.667Z" transform="translate(-25.333 -20.833)" fill="#1cc9ed"/>
      <path id="Path_96" data-name="Path 96" d="M70,61.667h2.333V64H70Z" transform="translate(-23.333 -20.833)" fill="#1cc9ed"/>
      <path id="Path_97" data-name="Path 97" d="M63.333,61.667h2.333V64H63.333Z" transform="translate(-21.333 -20.833)" fill="#1cc9ed"/>
      <path id="Path_98" data-name="Path 98" d="M56.667,61.667H59V64H56.667Z" transform="translate(-19.333 -20.833)" fill="#1cc9ed"/>
      <path id="Path_99" data-name="Path 99" d="M50,61.667h2.333V64H50Z" transform="translate(-17.333 -20.833)" fill="#1cc9ed"/>
      <path id="Path_100" data-name="Path 100" d="M43.333,61.667h2.333V64H43.333Z" transform="translate(-15.333 -20.833)" fill="#1cc9ed"/>
      <path id="Path_101" data-name="Path 101" d="M36.667,61.667H39V64H36.667Z" transform="translate(-13.333 -20.833)" fill="#1cc9ed"/>
    </g>
  </g>
</svg>
