<svg xmlns="http://www.w3.org/2000/svg" xmlns:xlink="http://www.w3.org/1999/xlink" width="70" height="70" viewBox="0 0 70 70">
  <defs>
    <clipPath id="clip-path">
      <rect id="Rectangle_55" data-name="Rectangle 55" width="70" height="70" transform="translate(969 1880)" fill="#1cc9ed" stroke="#707070" stroke-width="1"/>
    </clipPath>
  </defs>
  <g id="Mask_Group_30" data-name="Mask Group 30" transform="translate(-969 -1880)" clip-path="url(#clip-path)">
    <g id="_006-travel-map" data-name="006-travel-map" transform="translate(967.872 1878.871)">
      <path id="Path_123" data-name="Path 123" d="M71.009,69.494,54.074,35.624A1.13,1.13,0,0,0,53.064,35H41.894l.142-.615a11.29,11.29,0,1,0-7.3,0l.142.615H19.193a1.13,1.13,0,0,0-1.01.624L1.248,69.494a1.129,1.129,0,0,0,1.01,1.634H70a1.129,1.129,0,0,0,1.01-1.634ZM34.2,64.023l4.847,4.847H35.467l-8.7-8.7a1.128,1.128,0,0,0-1.6,0l-8.7,8.7H12.887L23.378,58.378a1.128,1.128,0,0,0,0-1.6l-8.833-8.833,1.193-2.388,4.913,4.913a1.128,1.128,0,0,0,1.6,0l5.645-5.645a1.126,1.126,0,0,0,.331-.8V37.257h2.258v8.565L24.04,52.265a1.128,1.128,0,0,0,0,1.6l6.774,6.774a1.128,1.128,0,0,0,1.6,0l9.83-9.83h16.9l1.129,2.258H44.031a1.124,1.124,0,0,0-.8.331L34.2,62.426a1.128,1.128,0,0,0,0,1.6ZM32.274,68.87H19.661l6.307-6.307Zm-2.92-45.16a9.032,9.032,0,1,1,11.429,8.7,1.13,1.13,0,0,0-.8.834l-1.6,6.906-1.6-6.906a1.129,1.129,0,0,0-.8-.834,9.049,9.049,0,0,1-6.635-8.7Zm7.931,21.705a1.13,1.13,0,0,0,2.2,0l1.885-8.157H52.366l5.645,11.29H41.773a1.124,1.124,0,0,0-.8.331l-9.363,9.363-5.178-5.178,5.976-5.976a1.126,1.126,0,0,0,.331-.8V37.257H35.4ZM19.891,37.257h6.076v6.307L21.451,48.08,16.8,43.432Zm-6.409,12.82,7.5,7.5L9.694,68.87H4.085ZM42.241,68.87,36.6,63.225l7.9-7.9H61.4l4.516,9.032H60.442l-4.181-6.272a1.129,1.129,0,0,0-1.738-.172l-2.137,2.136-1.73-3.028a1.174,1.174,0,0,0-1.96,0l-4.191,7.335H41.773v2.258h25.27l1.129,2.258Zm10.006-4.516H47.106l2.571-4.5Zm2.6,0-1.3-2.275,1.6-1.6,2.582,3.873Z" fill="#1cc9ed"/>
      <path id="Path_124" data-name="Path 124" d="M42.9,23.709H45.16a6.781,6.781,0,0,0-6.774-6.774v2.258A4.521,4.521,0,0,1,42.9,23.709Z" fill="#1cc9ed"/>
      <path id="Path_125" data-name="Path 125" d="M41.095,27.322l1.356,1.806a6.8,6.8,0,0,0,2.144-2.71l-2.068-.9a4.509,4.509,0,0,1-1.432,1.806Z" fill="#1cc9ed"/>
      <path id="Path_126" data-name="Path 126" d="M4.516,16.935a1.13,1.13,0,0,0-.939.5L1.319,20.825a1.128,1.128,0,0,0,0,1.252l2.258,3.387a1.129,1.129,0,0,0,.939.5h5.645V36.128a1.129,1.129,0,0,0,1.129,1.129h4.516a1.129,1.129,0,0,0,1.129-1.129V25.967h7.9a1.128,1.128,0,0,0,.939-1.754l-1.84-2.762,1.84-2.76a1.129,1.129,0,0,0-.939-1.756h-7.9V14.677H22.58a1.13,1.13,0,0,0,.939-.5l2.258-3.387a1.128,1.128,0,0,0,0-1.252L23.52,6.149a1.129,1.129,0,0,0-.939-.5H16.935V2.258a1.129,1.129,0,0,0-1.129-1.129H11.29a1.129,1.129,0,0,0-1.129,1.129V5.645h-7.9A1.128,1.128,0,0,0,1.319,7.4l1.84,2.762-1.84,2.76a1.129,1.129,0,0,0,.939,1.756h7.9v2.258ZM14.677,35H12.419V25.967h2.258Zm6.964-12.922,1.088,1.631H5.12l-1.5-2.258,1.5-2.258H22.729l-1.088,1.631A1.13,1.13,0,0,0,21.641,22.078ZM12.419,3.387h2.258V5.645H12.419ZM5.455,9.534,4.367,7.9H21.976l1.5,2.258-1.5,2.258H4.367l1.088-1.631a1.13,1.13,0,0,0,0-1.253Zm6.964,5.143h2.258v2.258H12.419Z" fill="#1cc9ed"/>
      <path id="Path_127" data-name="Path 127" d="M5.645,20.322H7.9V22.58H5.645Z" fill="#1cc9ed"/>
      <path id="Path_128" data-name="Path 128" d="M10.161,20.322h2.258V22.58H10.161Z" fill="#1cc9ed"/>
      <path id="Path_129" data-name="Path 129" d="M19.193,9.032h2.258V11.29H19.193Z" fill="#1cc9ed"/>
      <path id="Path_130" data-name="Path 130" d="M14.677,9.032h2.258V11.29H14.677Z" fill="#1cc9ed"/>
    </g>
  </g>
</svg>
