<svg xmlns="http://www.w3.org/2000/svg" xmlns:xlink="http://www.w3.org/1999/xlink" width="70" height="70" viewBox="0 0 70 70">
  <defs>
    <clipPath id="clip-path">
      <rect id="Rectangle_45" data-name="Rectangle 45" width="70" height="70" transform="translate(1232 1860)" fill="#1cc9ed"/>
    </clipPath>
  </defs>
  <g id="Mask_Group_23" data-name="Mask Group 23" transform="translate(-1232 -1860)" clip-path="url(#clip-path)">
    <g id="_021-earth-grid" data-name="021-earth-grid" transform="translate(1233.009 1860)">
      <path id="Path_103" data-name="Path 103" d="M81.763,67.487a7.034,7.034,0,1,0-5.318,2.431A7.027,7.027,0,0,0,81.763,67.487Zm-10.3-4.6a4.979,4.979,0,0,1,1.215-3.26h0a4.982,4.982,0,1,1-1.215,3.261Z" transform="translate(-21.832 -16.754)" fill="#1cc9ed"/>
      <path id="Path_104" data-name="Path 104" d="M83.208,50.763A13.361,13.361,0,0,0,61.343,65.2a1.026,1.026,0,0,0,1.9-.774,11.318,11.318,0,1,1,19.567,2.493l-5.58,7.694a12.2,12.2,0,0,0-2.06,4.612l-.418,1.933a1.047,1.047,0,0,1-2.046,0l-.418-1.933a12.2,12.2,0,0,0-2.061-4.612l-4.821-6.648a1.026,1.026,0,0,0-1.661,1.205l4.821,6.648a10.157,10.157,0,0,1,1.716,3.841L70.7,81.6a3.1,3.1,0,0,0,6.058,0l.418-1.933a10.159,10.159,0,0,1,1.716-3.841l5.573-7.685a13.337,13.337,0,0,0-1.256-17.373Z" transform="translate(-19.116 -14.039)" fill="#1cc9ed"/>
      <path id="Path_105" data-name="Path 105" d="M14.524,19.008a5.837,5.837,0,0,0,5.3-8.284,1.026,1.026,0,0,0-1.863.861,3.784,3.784,0,1,1-3.436-2.2,3.848,3.848,0,0,1,.578.044,1.026,1.026,0,0,0,.31-2.029,5.9,5.9,0,0,0-.889-.067,5.837,5.837,0,0,0,0,11.674Z" transform="translate(-3.615 -2.2)" fill="#1cc9ed"/>
      <path id="Path_106" data-name="Path 106" d="M8.051,23.65a7.927,7.927,0,0,1,1.34,3L9.725,28.2a2.686,2.686,0,0,0,5.251,0l.334-1.548a7.928,7.928,0,0,1,1.34-3L21.11,17.5A10.922,10.922,0,0,0,12.613.09,10.91,10.91,0,0,0,1.441,11a10.81,10.81,0,0,0,2.143,6.493ZM6.162,4.66a8.789,8.789,0,0,1,6.187-2.52l.216,0a8.857,8.857,0,0,1,6.892,14.142l-4.468,6.161a9.971,9.971,0,0,0-1.684,3.77l-.334,1.548a.633.633,0,0,1-1.238,0L11.4,26.215a9.969,9.969,0,0,0-1.684-3.77l-4.475-6.17A8.857,8.857,0,0,1,6.162,4.66Z" transform="translate(-1.441 -0.026)" fill="#1cc9ed"/>
      <path id="Path_107" data-name="Path 107" d="M81.636,13.836a1.026,1.026,0,1,0,1.515,1.384l.018-.019c.025-.027.049-.053.072-.08A4.942,4.942,0,0,0,75.786,8.63,1.026,1.026,0,0,0,77.33,9.982a2.89,2.89,0,0,1,4.359,3.8Z" transform="translate(-23.668 -2.083)" fill="#1cc9ed"/>
      <path id="Path_108" data-name="Path 108" d="M69.991,5.523a1.026,1.026,0,0,0,1.432-.235,7.75,7.75,0,1,1,12.516,9.143l-1.061,1.463a1.026,1.026,0,1,0,1.661,1.2l1.054-1.453A9.8,9.8,0,1,0,69.756,4.091a1.145,1.145,0,0,0,.072,1.286,1.021,1.021,0,0,0,.163.146Z" transform="translate(-21.886 0)" fill="#1cc9ed"/>
      <path id="Path_109" data-name="Path 109" d="M48.694,63.172a1.025,1.025,0,0,0-1.791-.689,21.616,21.616,0,0,1-2.022,2,28.643,28.643,0,0,1-4.437,1.146,42.557,42.557,0,0,0,2.876-9.948,1.026,1.026,0,0,0-2.019-.369A35.678,35.678,0,0,1,37.97,65.948q-1.285.112-2.591.114c-.874,0-1.738-.041-2.593-.117-1.512-2.615-2.76-6.99-3.61-12.342,2.031.165,4.106.25,6.2.25,1.943,0,3.9-.074,5.829-.219a1.026,1.026,0,0,0-.154-2.047c-1.874.141-3.783.213-5.675.213-2.206,0-4.383-.1-6.507-.282a110.882,110.882,0,0,1-.92-13.566H44.593a1.026,1.026,0,0,0,.266-2.016,113.428,113.428,0,0,0-.866-13.386,61.634,61.634,0,0,1,9.655,1.887,45.257,45.257,0,0,1,1.362,7.1,1.026,1.026,0,0,0,1.019.913,1.041,1.041,0,0,0,.114-.006,1.026,1.026,0,0,0,.907-1.133,47.618,47.618,0,0,0-1.093-6.154,34.142,34.142,0,0,1,7.337,3.41,29,29,0,0,1,1.062,5.316,1.026,1.026,0,0,0,2.041-.212A31.213,31.213,0,0,0,26.092,7.147a1.026,1.026,0,1,0,.61,1.96,28.924,28.924,0,0,1,3.612-.874,47.335,47.335,0,0,0-3.256,12.22c-1.169.128-2.326.28-3.464.463a1.026,1.026,0,0,0,.325,2.026q1.405-.225,2.845-.393-.246,1.921-.427,3.973a1.026,1.026,0,0,0,.933,1.112c.03,0,.061,0,.091,0a1.026,1.026,0,0,0,1.021-.937c.132-1.5.294-2.961.482-4.364,2.136-.186,4.313-.283,6.515-.283s4.383.1,6.507.282a110.882,110.882,0,0,1,.92,13.566H27.954c.014-1.634.058-3.267.135-4.868a1.026,1.026,0,1,0-2.05-.1c-.079,1.633-.124,3.3-.137,4.967H15.464c.007-.3.016-.6.028-.922a1.026,1.026,0,1,0-2.051-.08c-.014.347-.024.679-.031,1H6.263a29.07,29.07,0,0,1,1.4-7.964A1.026,1.026,0,0,0,5.708,27.3a31.2,31.2,0,0,0,43.116,37.77,1.024,1.024,0,0,0-.13-1.9Zm-5-42.718A47.345,47.345,0,0,0,40.446,8.236a29.055,29.055,0,0,1,4.445,1.15,26.957,26.957,0,0,1,6.555,9.027,37.149,37.149,0,0,1,1.488,3.712A65.576,65.576,0,0,0,43.7,20.455Zm18.524,5.132a41.387,41.387,0,0,0-6.917-2.79,40.131,40.131,0,0,0-2-5.251,32.47,32.47,0,0,0-3.6-5.987A29.211,29.211,0,0,1,62.222,25.586ZM35.379,20c-2.095,0-4.169.084-6.209.249.862-5.39,2.132-9.769,3.618-12.342q1.288-.113,2.591-.115t2.592.116c1.512,2.616,2.761,6.991,3.611,12.343C39.551,20.087,37.477,20,35.379,20ZM30.313,65.62a28.886,28.886,0,0,1-4.449-1.155A29.11,29.11,0,0,1,17.821,51.73a65.622,65.622,0,0,0,9.238,1.67A47.349,47.349,0,0,0,30.313,65.62ZM26.765,51.3a61.619,61.619,0,0,1-9.66-1.888,46.781,46.781,0,0,1-1.642-11.462H25.9a113.453,113.453,0,0,0,.866,13.35Zm-20.5-13.35h7.147A49.114,49.114,0,0,0,14.8,48.7,34.16,34.16,0,0,1,7.47,45.292a29.009,29.009,0,0,1-1.205-7.338Zm2.28,10.32a41.413,41.413,0,0,0,6.912,2.785,35.763,35.763,0,0,0,5.572,11.216A29.317,29.317,0,0,1,8.545,48.274Z" transform="translate(-2.266 -1.722)" fill="#1cc9ed"/>
    </g>
  </g>
</svg>
