<svg xmlns="http://www.w3.org/2000/svg" xmlns:xlink="http://www.w3.org/1999/xlink" width="70" height="70" viewBox="0 0 70 70">
  <defs>
    <clipPath id="clip-path">
      <rect id="Rectangle_49" data-name="Rectangle 49" width="70" height="70" transform="translate(171 2377)" fill="#1cc9ed" stroke="#707070" stroke-width="1"/>
    </clipPath>
  </defs>
  <g id="Mask_Group_29" data-name="Mask Group 29" transform="translate(-171 -2377)" clip-path="url(#clip-path)">
    <g id="_017-sprout" data-name="017-sprout" transform="translate(171.038 2377)">
      <g id="Group_78" data-name="Group 78" transform="translate(0 0)">
        <g id="Group_77" data-name="Group 77">
          <path id="Path_121" data-name="Path 121" d="M30.729,33.55a8,8,0,0,0,1.02-.073,8.515,8.515,0,0,0,5.827-4.05,59.6,59.6,0,0,1,5.449,13.2,1.46,1.46,0,0,0,1.355,1.122h.073a1.457,1.457,0,0,0,1.384-.991A38.065,38.065,0,0,1,50.076,34.6c1.7,3.249,3.875,4.341,5.492,4.647a7,7,0,0,0,1.238.117A9.927,9.927,0,0,0,63.726,36c3.817-4.006,5.23-14.962,2.651-20.556a1.448,1.448,0,0,0-1.938-.7,2.549,2.549,0,0,0-.262.16,19.1,19.1,0,0,1-7.546,3.234,20.684,20.684,0,0,0-6.687,2.622c-2.564,1.7-4.094,4.167-4.094,6.614a6.914,6.914,0,0,0,2.258,4.939,39.779,39.779,0,0,0-3.424,5.711,67.466,67.466,0,0,0-5.157-11.174c3.394-1.734,5.463-4.035,6.1-6.847.991-4.283-1.617-8.173-3.249-10.1-2.739-3.234-6.629-4.167-10.751-5.157-3.642-.874-7.415-1.777-10.5-4.4A1.434,1.434,0,0,0,19.9.029,1.467,1.467,0,0,0,18.9.772C14.864,8.391,16.933,22.9,21.42,28.189,24.319,31.656,27.655,33.55,30.729,33.55ZM51.562,23.192a18.016,18.016,0,0,1,5.8-2.244,24.545,24.545,0,0,0,6.949-2.637c1.355,5.143-.16,13.024-2.7,15.675-1.355,1.413-3.5,2.783-5.492,2.4-2.04-.393-3.307-2.564-4.006-4.312-.015-.015-.029-.044-.044-.058a19.888,19.888,0,0,1,6.09-4.91,1.459,1.459,0,1,0-1.282-2.622.014.014,0,0,0-.015.015,22.731,22.731,0,0,0-6.92,5.536,4.009,4.009,0,0,1-1.18-2.651A5.448,5.448,0,0,1,51.562,23.192ZM20.764,3.758c3.263,2.2,6.905,3.074,10.183,3.861,3.8.9,7.08,1.69,9.222,4.2,2.185,2.579,3.147,5.332,2.637,7.561-.452,1.981-2.069,3.657-4.778,5a64.433,64.433,0,0,0-11.6-13.767,1.453,1.453,0,0,0-1.981,2.127.2.2,0,0,0,.058.044A62.063,62.063,0,0,1,35.944,26.558c-1.3,2.418-2.826,3.788-4.589,4.035-2.3.335-5.172-1.267-7.707-4.239C20.065,22.143,18.259,10.678,20.764,3.758Z" transform="translate(-5.06 0)" fill="#1cc9ed"/>
          <path id="Path_122" data-name="Path 122" d="M69.822,71.569a1.324,1.324,0,0,0-.262-.393l-.335-.335c-2.9-2.914-4.5-4.516-8.362-3.409L48.129,71c0-.087.015-.175.015-.277,0-2.535-1.617-5.1-4.706-5.1-2.214,0-3.831,0-5.2.015-2.025,0-3.5.015-5.565,0l-.306-.291c-1.588-1.53-4.239-4.079-10.533-4.079H14.622V59.812a1.461,1.461,0,0,0-1.457-1.457H1.511A1.461,1.461,0,0,0,.054,59.812V81.665a1.461,1.461,0,0,0,1.457,1.457H13.165a1.461,1.461,0,0,0,1.457-1.457v-.67c2.681.9,5.041,1.734,7.124,2.462,7.43,2.608,11.626,4.05,15.53,4.05,4.895,0,9.324-2.273,19.084-7.386,3.409-1.792,7.663-4.006,12.82-6.6A1.454,1.454,0,0,0,69.822,71.569ZM11.708,80.193H2.967V61.255h8.741Zm43.268-2.666C38.412,86.21,38.412,86.21,22.693,80.7c-2.316-.816-5-1.748-8.071-2.783V64.168H21.8c5.1,0,7.153,1.967,8.493,3.263a9.862,9.862,0,0,0,.874.787,1.4,1.4,0,0,0,.889.306c2.36.015,3.919.015,6.119.015,1.369,0,3.03-.015,5.259-.015,1.734,0,1.792,1.967,1.792,2.185a2.642,2.642,0,0,1-.5,1.6,1.524,1.524,0,0,1-1.3.583H27.777a1.492,1.492,0,0,0-1.486,1.238,1.459,1.459,0,0,0,1.442,1.675h15.69a4.346,4.346,0,0,0,3.394-1.5,1.25,1.25,0,0,0,.233-.015L61.62,70.214c1.85-.524,2.506-.277,4.414,1.588C61.649,74.017,57.992,75.94,54.976,77.527Z" transform="translate(-0.054 -17.507)" fill="#1cc9ed"/>
        </g>
      </g>
    </g>
  </g>
</svg>
