<svg xmlns="http://www.w3.org/2000/svg" xmlns:xlink="http://www.w3.org/1999/xlink" width="70" height="70" viewBox="0 0 70 70">
  <defs>
    <clipPath id="clip-path">
      <rect id="Rectangle_48" data-name="Rectangle 48" width="70" height="70" transform="translate(766 2229)" fill="#1cc9ed" stroke="#707070" stroke-width="1"/>
    </clipPath>
  </defs>
  <g id="Mask_Group_28" data-name="Mask Group 28" transform="translate(-766 -2229)" clip-path="url(#clip-path)">
    <path id="_013-24-hours-fat" data-name="013-24-hours-fat" d="M63.241,69.4a1.559,1.559,0,0,1-1.557-1.557V64.791H47.1a1.567,1.567,0,0,1-1.283-2.464l16.142-23.06a1.562,1.562,0,0,1,2.839.894v21.5h3.055a1.557,1.557,0,0,1,0,3.113H64.8v3.07A1.55,1.55,0,0,1,63.241,69.4Zm-1.557-7.725V45.133L50.1,61.678ZM30.957,69.4a1.508,1.508,0,0,1-1.009-.375,1.572,1.572,0,0,1-.187-2.205L44,50.047a5.3,5.3,0,0,0-1.2-7.12,6.52,6.52,0,0,0-10.3,5.3,1.557,1.557,0,0,1-3.113,0A9.481,9.481,0,0,1,31.2,42.611,9.655,9.655,0,0,1,39.028,38.6a9.47,9.47,0,0,1,5.606,1.816,8.423,8.423,0,0,1,1.917,11.443c-.029.043-.072.1-.1.144L34.33,66.275H47.1a1.557,1.557,0,1,1,0,3.113H30.957Zm-1.182-6.932A31.518,31.518,0,0,1-.562,31.081a.32.32,0,0,1-.014-.13c0-.058.014-.1.014-.13a31.492,31.492,0,0,1,31.4-31.4.32.32,0,0,1,.13-.014c.058,0,.1.014.13.014A31.5,31.5,0,0,1,62.39,28.443l3.963-3.963a1.559,1.559,0,0,1,2.219,2.191L62.044,33.2a1.563,1.563,0,0,1-.562.36h-.029a.613.613,0,0,1-.159.029,2.067,2.067,0,0,1-.317.058h-.144a2.3,2.3,0,0,1-.3-.072c-.043-.014-.1-.029-.144-.043h-.029a1.511,1.511,0,0,1-.605-.432l-6.428-6.428a1.564,1.564,0,0,1,1.124-2.652,1.576,1.576,0,0,1,1.081.432l3.718,3.718a28.256,28.256,0,0,0-26.72-25.6V5.586a1.564,1.564,0,0,1-3.127,0V2.6A28.48,28.48,0,0,0,2.609,29.395H6.745a1.557,1.557,0,0,1,0,3.113H2.594A28.507,28.507,0,0,0,29.876,59.343h.014a1.557,1.557,0,0,1-.058,3.113Zm1.182-27.657a3.854,3.854,0,0,1-3.632-2.565,3.815,3.815,0,0,1,.043-2.681L21.7,23.9a1.564,1.564,0,0,1,1.124-2.652,1.576,1.576,0,0,1,1.081.432l5.678,5.678a4.032,4.032,0,0,1,1.369-.245,3.971,3.971,0,0,1,1.369.245L44.519,15.17a1.583,1.583,0,0,1,1.11-.461,1.548,1.548,0,0,1,1.11.461,1.566,1.566,0,0,1,0,2.205L34.56,29.568A3.815,3.815,0,0,1,33.7,33.69a3.884,3.884,0,0,1-2.738,1.124Zm0-4.612a.74.74,0,0,0-.533.216.748.748,0,0,0,0,1.052.791.791,0,0,0,.533.2.74.74,0,0,0,.533-.216.731.731,0,0,0,.216-.519.74.74,0,0,0-.216-.533A.727.727,0,0,0,30.957,30.2Z" transform="translate(766.584 2229.597)" fill="#1cc9ed"/>
  </g>
</svg>
