<svg xmlns="http://www.w3.org/2000/svg" width="22.076" height="22.076" viewBox="0 0 22.076 22.076">
  <path id="arrow-alt-circle-right" d="M30.076,19.038A11.038,11.038,0,1,0,19.038,30.076,11.036,11.036,0,0,0,30.076,19.038Zm-19.94,0a8.9,8.9,0,1,1,8.9,8.9A8.9,8.9,0,0,1,10.136,19.038Zm3.2.89v-1.78a.536.536,0,0,1,.534-.534h5.163V14.632a.535.535,0,0,1,.912-.378l4.406,4.406a.535.535,0,0,1,0,.757l-4.406,4.406a.534.534,0,0,1-.912-.378V20.462H13.875A.536.536,0,0,1,13.341,19.928Z" transform="translate(-8 -8)" fill="#dffdff"/>
</svg>
