<svg xmlns="http://www.w3.org/2000/svg" xmlns:xlink="http://www.w3.org/1999/xlink" width="70" height="70" viewBox="0 0 70 70">
  <defs>
    <clipPath id="clip-path">
      <rect id="Rectangle_52" data-name="Rectangle 52" width="70" height="70" transform="translate(541 3751)" fill="#1cc9ed"/>
    </clipPath>
  </defs>
  <g id="Mask_Group_32" data-name="Mask Group 32" transform="translate(-541 -3751)" clip-path="url(#clip-path)">
    <g id="_004-flight" data-name="004-flight" transform="translate(541 3751)">
      <g id="Group_80" data-name="Group 80">
        <path id="Path_132" data-name="Path 132" d="M6.674,12.127a1.02,1.02,0,0,0,.685-.263c.244-.22.5-.44.748-.653A1.024,1.024,0,1,0,6.782,9.649c-.267.227-.534.46-.793.693a1.024,1.024,0,0,0,.686,1.785Z" fill="#1cc9ed"/>
        <path id="Path_133" data-name="Path 133" d="M34.377,3.7c.661.1,1.328.214,1.98.35a1.024,1.024,0,1,0,.418-2c-.693-.145-1.4-.269-2.1-.372a1.024,1.024,0,0,0-.3,2.026Z" fill="#1cc9ed"/>
        <path id="Path_134" data-name="Path 134" d="M50.715,10.973c.514.427,1.022.874,1.51,1.33a1.024,1.024,0,0,0,1.4-1.495c-.517-.484-1.056-.959-1.6-1.412a1.024,1.024,0,1,0-1.307,1.576Z" fill="#1cc9ed"/>
        <path id="Path_135" data-name="Path 135" d="M40.238,5.107c.633.215,1.267.453,1.885.706A1.024,1.024,0,1,0,42.9,3.918c-.657-.269-1.33-.521-2-.75a1.024,1.024,0,1,0-.659,1.939Z" fill="#1cc9ed"/>
        <path id="Path_136" data-name="Path 136" d="M28.321,3.37h.037c.665-.024,1.343-.027,2.013-.011a1.024,1.024,0,1,0,.049-2.047c-.71-.017-1.429-.013-2.134.012a1.024,1.024,0,0,0,.035,2.047Z" fill="#1cc9ed"/>
        <path id="Path_137" data-name="Path 137" d="M59.365,21.949a1.024,1.024,0,0,0,1.839-.9c-.312-.636-.647-1.271-1-1.887a1.024,1.024,0,1,0-1.781,1.011c.329.58.645,1.178.938,1.777Z" fill="#1cc9ed"/>
        <path id="Path_138" data-name="Path 138" d="M56.234,16.8a1.024,1.024,0,1,0,1.645-1.219c-.422-.57-.867-1.134-1.321-1.676a1.024,1.024,0,0,0-1.569,1.316C55.418,15.735,55.837,16.267,56.234,16.8Z" fill="#1cc9ed"/>
        <path id="Path_139" data-name="Path 139" d="M60.909,25.658c.219.631.421,1.277.6,1.919a1.024,1.024,0,0,0,1.972-.551c-.19-.682-.4-1.368-.637-2.039a1.024,1.024,0,1,0-1.935.671Z" fill="#1cc9ed"/>
        <path id="Path_140" data-name="Path 140" d="M22.158,4.15a1.033,1.033,0,0,0,.221-.024c.651-.143,1.316-.269,1.976-.373a1.024,1.024,0,0,0-.318-2.023c-.7.11-1.407.243-2.1.4a1.024,1.024,0,0,0,.219,2.024Z" fill="#1cc9ed"/>
        <path id="Path_141" data-name="Path 141" d="M45.745,7.561c.582.326,1.163.675,1.725,1.037a1.024,1.024,0,0,0,1.107-1.723c-.6-.384-1.214-.754-1.831-1.1a1.024,1.024,0,1,0-1,1.786Z" fill="#1cc9ed"/>
        <path id="Path_142" data-name="Path 142" d="M16.241,6.036a1.023,1.023,0,0,0,.4-.081c.615-.26,1.246-.5,1.875-.726A1.024,1.024,0,0,0,17.833,3.3c-.668.236-1.338.5-1.991.772a1.024,1.024,0,0,0,.4,1.967Z" fill="#1cc9ed"/>
        <path id="Path_143" data-name="Path 143" d="M10.764,8.968a1.019,1.019,0,0,0,.562-.169c.558-.367,1.134-.722,1.713-1.055a1.024,1.024,0,1,0-1.021-1.775c-.614.353-1.226.73-1.818,1.12a1.024,1.024,0,0,0,.564,1.879Z" fill="#1cc9ed"/>
        <path id="Path_144" data-name="Path 144" d="M63.215,30.359a1.024,1.024,0,0,0-.86,1.165c.049.326.094.658.134.985a1.024,1.024,0,0,0,2.033-.246c-.042-.347-.09-.7-.142-1.045a1.025,1.025,0,0,0-1.165-.86Z" fill="#1cc9ed"/>
        <path id="Path_145" data-name="Path 145" d="M12.852,28.4a1.024,1.024,0,0,0-1.024-1.024H9.862a1.024,1.024,0,1,0,0,2.048h1.966A1.024,1.024,0,0,0,12.852,28.4Z" fill="#1cc9ed"/>
        <path id="Path_146" data-name="Path 146" d="M15.155,32.064H13.189a1.024,1.024,0,1,0,0,2.048h1.966a1.024,1.024,0,0,0,0-2.048Z" fill="#1cc9ed"/>
        <path id="Path_147" data-name="Path 147" d="M10.467,41.29H8.5a1.024,1.024,0,0,0,0,2.048h1.966a1.024,1.024,0,0,0,0-2.048Z" fill="#1cc9ed"/>
        <path id="Path_148" data-name="Path 148" d="M31.519,11.947H29.553a1.024,1.024,0,0,0,0,2.048h1.966a1.024,1.024,0,0,0,0-2.048Z" fill="#1cc9ed"/>
        <path id="Path_149" data-name="Path 149" d="M38.287,51.4a1.024,1.024,0,0,0-1.024-1.024H35.3a1.024,1.024,0,0,0,0,2.048h1.966A1.024,1.024,0,0,0,38.287,51.4Z" fill="#1cc9ed"/>
        <path id="Path_150" data-name="Path 150" d="M32.96,54.163H30.993a1.024,1.024,0,0,0,0,2.048H32.96a1.024,1.024,0,1,0,0-2.048Z" fill="#1cc9ed"/>
        <path id="Path_151" data-name="Path 151" d="M68.914,37.045a3.718,3.718,0,0,0-2.742-1.084A10.874,10.874,0,0,0,59,39q.1-1.226.1-2.471A29.577,29.577,0,0,0,47.227,12.838a30.137,30.137,0,0,0-5.62-3.31,29.608,29.608,0,0,0-32.951,6.1c-.538.538-1.049,1.089-1.543,1.666A29.561,29.561,0,0,0,43.275,62.71l2.108,4.637a2.31,2.31,0,0,0,1.691,1.317,2.349,2.349,0,0,0,2.045-.639l1.531-1.531a2.305,2.305,0,0,0,.674-1.527l.186-4.022,3.97-3.6L60.34,64.7a2.3,2.3,0,0,0,1.694,1.025,2.343,2.343,0,0,0,1.865-.665l1.53-1.53a2.316,2.316,0,0,0,.648-2l-1.92-12.035,2.21-1.963A10.871,10.871,0,0,0,70,39.786a3.72,3.72,0,0,0-1.084-2.742ZM45.331,13.995A27.5,27.5,0,0,1,56.7,32.064H39.8a2.3,2.3,0,0,1,0-4.608h4.088a4.351,4.351,0,1,0,0-8.7H42a2.379,2.379,0,1,1,0-4.759h3.328ZM29.553,64.031a27.338,27.338,0,0,1-14.605-4.208h7.014a4.956,4.956,0,1,0,0-9.912h-3.63a1.4,1.4,0,0,1,0-2.792H31.692a5.808,5.808,0,0,0,0-11.617H26.4a3.876,3.876,0,0,1-3.872-3.872V31.3a3.546,3.546,0,0,1,3.547-3.545,5.411,5.411,0,0,0,0-10.821H19.1a1.024,1.024,0,1,0,0,2.048h6.979a3.363,3.363,0,0,1,0,6.725A5.593,5.593,0,0,0,20.484,31.3v.326A5.926,5.926,0,0,0,26.4,37.55h5.289a3.761,3.761,0,0,1,0,7.521H18.332a3.444,3.444,0,0,0,0,6.887h3.63a2.908,2.908,0,1,1,0,5.816H12.088A27.5,27.5,0,0,1,8.366,18.986h5.943a1.024,1.024,0,1,0,0-2.048H10.268A27.451,27.451,0,0,1,41.891,11.95,4.426,4.426,0,0,0,42,20.8h1.889a2.3,2.3,0,1,1,0,4.607H39.8a4.352,4.352,0,1,0,0,8.7H56.951q.105,1.193.107,2.414a27.539,27.539,0,0,1-.488,5.157l-.1.114-5.281-.842a1.024,1.024,0,0,0-.323,2.022l3.968.633L50,48.938l-7.615-5.032a.262.262,0,0,1-.041-.4l1.53-1.53A.263.263,0,0,1,44.1,41.9l2,.32a1.024,1.024,0,1,0,.323-2.022l-2-.32a2.316,2.316,0,0,0-2,.648l-1.53,1.53a2.31,2.31,0,0,0,.36,3.56l7.361,4.865-3.6,3.971-4.022.186a2.3,2.3,0,0,0-1.526.674L37.934,56.84a2.31,2.31,0,0,0,.677,3.736l2.245,1.02a27.336,27.336,0,0,1-11.3,2.435Zm34.429-1.953-1.53,1.53a.262.262,0,0,1-.4-.041l-5.032-7.615,5.328-4.831,1.712,10.73a.263.263,0,0,1-.073.226ZM65.008,46,61.2,49.383,49.818,59.715a1.024,1.024,0,0,0-.335.711l-.205,4.447a.26.26,0,0,1-.077.173l-1.531,1.531a.262.262,0,0,1-.423-.077l-2.275-5.005a1.025,1.025,0,0,0-.508-.508l-5.005-2.275a.262.262,0,0,1-.077-.424l1.531-1.531a.261.261,0,0,1,.173-.076l4.447-.205a1.024,1.024,0,0,0,.711-.335L59.959,40.95a8.814,8.814,0,0,1,6.279-2.944h.056a1.661,1.661,0,0,1,1.658,1.714A8.814,8.814,0,0,1,65.008,46Z" fill="#1cc9ed"/>
      </g>
    </g>
  </g>
</svg>
