<svg id="plane" xmlns="http://www.w3.org/2000/svg" width="25" height="25" viewBox="0 0 25 25">
  <g id="Group_122" data-name="Group 122">
    <path id="Path_298" data-name="Path 298" d="M25,2.975A2.944,2.944,0,0,0,22.057,0h-.031a2.922,2.922,0,0,0-2.094.906l-4.376,4.56L4.105,1.676.724,5.058l9.569,5.892-3.937,4.1-3.09-.507L0,17.81l5.325,1.865L7.19,25l3.265-3.265-.507-3.09,4.1-3.937,5.892,9.569,3.382-3.381L19.535,9.445l4.56-4.376A2.922,2.922,0,0,0,25,2.975ZM23.079,4.011,17.852,9.027l3.8,11.47-1.43,1.43-5.871-9.536-5.971,5.73.51,3.109L7.8,22.314,6.475,18.525,2.686,17.2,3.77,16.114l3.109.51,5.73-5.971L3.073,4.782,4.5,3.352l11.47,3.8,5.016-5.227a1.467,1.467,0,0,1,1.051-.455h.016a1.478,1.478,0,0,1,1.023,2.545Z" fill="#1cc9ed"/>
  </g>
</svg>
