<svg xmlns="http://www.w3.org/2000/svg" width="10.241" height="14.301" viewBox="0 0 10.241 14.301">
  <path id="rouble-icon-grey" d="M15.328,8.845a2.5,2.5,0,0,0-.52-1.645,1.688,1.688,0,0,0-1.368-.63H10.88v4.55h2.56a1.688,1.688,0,0,0,1.368-.63A2.5,2.5,0,0,0,15.328,8.845Zm1.9,0a4.894,4.894,0,0,1-1.012,3.2A3.219,3.219,0,0,1,13.6,13.283H10.88v1.2h4.04a.224.224,0,0,1,.184.091.366.366,0,0,1,.072.234v1.3a.366.366,0,0,1-.072.234.224.224,0,0,1-.184.091H10.88v1.95a.353.353,0,0,1-.076.234.228.228,0,0,1-.18.091H9.288a.224.224,0,0,1-.184-.091.366.366,0,0,1-.072-.234v-1.95H7.24a.224.224,0,0,1-.184-.091.366.366,0,0,1-.072-.234v-1.3a.366.366,0,0,1,.072-.234.224.224,0,0,1,.184-.091H9.032v-1.2H7.24a.224.224,0,0,1-.184-.091.366.366,0,0,1-.072-.234V11.445a.371.371,0,0,1,.072-.229.22.22,0,0,1,.184-.1H9.032V4.732A.366.366,0,0,1,9.1,4.5a.224.224,0,0,1,.184-.091H13.6a3.219,3.219,0,0,1,2.612,1.239,4.894,4.894,0,0,1,1.012,3.2Z" transform="translate(-6.984 -4.406)" fill="#535353"/>
</svg>
