<svg xmlns="http://www.w3.org/2000/svg" width="71.57" height="71" viewBox="0 0 71.57 71">
  <g id="Up-arrow" transform="translate(0 71.768) rotate(-90)">
    <g id="Double_Chevron_Right" transform="translate(0.767 0)">
      <path id="Path_330" data-name="Path 330" d="M123.44,32.595,92.608,1.32a4.439,4.439,0,0,0-6.318,0,4.539,4.539,0,0,0,0,6.381l27.686,28.084L86.289,63.869a4.539,4.539,0,0,0,0,6.381,4.439,4.439,0,0,0,6.318,0l30.827-31.274A4.66,4.66,0,0,0,123.44,32.595Z" transform="translate(-53.7 0)" fill="#1cc9ed"/>
      <path id="Path_331" data-name="Path 331" d="M39.228,32.595,8.4,1.32a4.439,4.439,0,0,0-6.318,0,4.539,4.539,0,0,0,0,6.381L29.764,35.785,2.077,63.869a4.539,4.539,0,0,0,0,6.381,4.439,4.439,0,0,0,6.318,0L39.223,38.975A4.66,4.66,0,0,0,39.228,32.595Z" transform="translate(-0.767 0)" fill="#1cc9ed"/>
    </g>
  </g>
</svg>
