<svg xmlns="http://www.w3.org/2000/svg" width="25" height="24.265" viewBox="0 0 25 24.265">
  <g id="breakfast" transform="translate(0 -7.5)">
    <path id="Path_299" data-name="Path 299" d="M22.924,26.618a4.038,4.038,0,0,0,.605-2.206,9.2,9.2,0,0,0-3.063-6.142A11.667,11.667,0,0,0,13.4,14.894a6.8,6.8,0,0,0-4.818-2.369,1.6,1.6,0,0,1-1.131-.474L6.388,10.986A2.451,2.451,0,1,0,1.8,9.3a2.451,2.451,0,1,0,1.369,4.707L4.333,15.17A1.6,1.6,0,0,1,4.807,16.3a5.12,5.12,0,0,0,.038.593,6.483,6.483,0,0,0-3.375,5.311,5.923,5.923,0,0,0,2.18,4.412H0v1.471H1.471a3.681,3.681,0,0,0,3.676,3.676H19.853a3.681,3.681,0,0,0,3.676-3.676H25V26.618ZM3.45,12.208l-.493.3a.98.98,0,1,1-.506-1.82h.735V9.951A.98.98,0,1,1,4.9,10.6l-.459.518,1.972,1.972a3.064,3.064,0,0,0,2.164.9A5.831,5.831,0,0,1,13.7,18.589a2.269,2.269,0,0,1-2.83,2.83,5.831,5.831,0,0,1-4.594-5.125,3.064,3.064,0,0,0-.9-2.164Zm-.509,10a4.857,4.857,0,0,1,2.3-3.8A7.507,7.507,0,0,0,10.63,22.87a3.955,3.955,0,0,0,3.545-.978,3.943,3.943,0,0,0,.978-3.545,6.262,6.262,0,0,0-.593-1.779,10.5,10.5,0,0,1,4.879,2.754,7.849,7.849,0,0,1,2.62,5.09,2.52,2.52,0,0,1-1.149,2.206H6.214C4.132,25.488,2.941,23.888,2.941,22.206Zm16.912,8.088H5.147a2.208,2.208,0,0,1-2.206-2.206H22.059A2.208,2.208,0,0,1,19.853,30.294Z" transform="translate(0 0)" fill="#1cc9ed"/>
    <path id="Path_300" data-name="Path 300" d="M285,14.553h2.015c0-.209.041-.263.261-.52a2.62,2.62,0,0,0,0-3.663c-.22-.256-.261-.311-.261-.52s.041-.263.261-.52a2.6,2.6,0,0,0,.746-1.831h-2.015c0,.208-.041.263-.261.52a2.62,2.62,0,0,0,0,3.663c.22.256.261.311.261.52s-.041.263-.261.52A2.6,2.6,0,0,0,285,14.553Z" transform="translate(-271.53 0)" fill="#1cc9ed"/>
    <path id="Path_301" data-name="Path 301" d="M360,44.553h2.015c0-.209.041-.263.261-.52a2.62,2.62,0,0,0,0-3.663c-.22-.256-.261-.311-.261-.52s.041-.263.261-.52a2.6,2.6,0,0,0,.746-1.831h-2.015c0,.208-.041.263-.261.52a2.62,2.62,0,0,0,0,3.663c.22.256.261.311.261.52s-.041.263-.261.52A2.6,2.6,0,0,0,360,44.553Z" transform="translate(-342.985 -27.985)" fill="#1cc9ed"/>
    <path id="Path_302" data-name="Path 302" d="M435,74.553h2.015c0-.209.041-.263.261-.52a2.62,2.62,0,0,0,0-3.663c-.22-.256-.261-.311-.261-.52s.041-.263.261-.52a2.6,2.6,0,0,0,.746-1.831h-2.015c0,.208-.041.263-.261.52a2.62,2.62,0,0,0,0,3.663c.22.256.261.311.261.52s-.041.263-.261.52A2.6,2.6,0,0,0,435,74.553Z" transform="translate(-415.038 -55.969)" fill="#1cc9ed"/>
  </g>
</svg>
