<svg xmlns="http://www.w3.org/2000/svg" xmlns:xlink="http://www.w3.org/1999/xlink" width="70" height="70" viewBox="0 0 70 70">
  <defs>
    <clipPath id="clip-path">
      <rect id="Rectangle_45" data-name="Rectangle 45" width="70" height="70" transform="translate(1232 2229)" fill="#1cc9ed"/>
    </clipPath>
  </defs>
  <g id="Mask_Group_26" data-name="Mask Group 26" transform="translate(-1232 -2229)" clip-path="url(#clip-path)">
    <g id="_001-car" data-name="001-car" transform="translate(1232 2233.666)">
      <path id="Path_117" data-name="Path 117" d="M72.233,57.837l-1.11-4.563q-.009-.037-.02-.073c-1.557-4.982-6.247-8.2-11.95-8.2h-.209l-3.712-8.909a8.375,8.375,0,0,0-6.4-4.957V27.5a1.167,1.167,0,0,0-1.167-1.167h-3.5V18.167a3.5,3.5,0,0,0-3.5-3.5H38.333V13.5a3.5,3.5,0,0,0-3.5-3.5H32.5A3.5,3.5,0,0,0,29,13.5v1.167H27.833v-1.6A3.072,3.072,0,0,0,24.765,10H19.235a3.072,3.072,0,0,0-3.069,3.069V26.333h-3.5A1.167,1.167,0,0,0,11.5,27.5V31a8.176,8.176,0,0,0-8.167,8.167v24.5A1.167,1.167,0,0,0,4.5,64.833h9.108a6.993,6.993,0,0,0,12.116,0H48.608a6.993,6.993,0,0,0,12.116,0H72.167a1.167,1.167,0,0,0,1.167-1.167V59A1.166,1.166,0,0,0,72.233,57.837Zm-2.4,0h-3.5V55.5h2.93ZM44.167,29.805V28.667H46.5V31H43.957A3.485,3.485,0,0,0,44.167,29.805Zm3.091,3.528a6.269,6.269,0,0,1,5.821,3.655L56.417,45H37.167V33.333ZM31.333,13.5A1.168,1.168,0,0,1,32.5,12.333h2.333A1.168,1.168,0,0,1,36,13.5v1.167H31.333Zm-3.5,3.5H40.667a1.168,1.168,0,0,1,1.167,1.167v8.167h-14Zm0,13.237v-1.57h14v1.139a1.168,1.168,0,0,1-1.167,1.167V31H27.733a3.058,3.058,0,0,0,.1-.763Zm7,3.1V45h-14V33.333Zm-11.667-21h1.6a.736.736,0,0,1,.735.735V26.333H23.167Zm0,16.333H25.5v1.57a.736.736,0,0,1-.735.735V31h-1.6ZM18.5,13.069a.736.736,0,0,1,.735-.735h1.6v14H18.5Zm0,15.6h2.333V31h-1.6v-.028a.736.736,0,0,1-.735-.735Zm-4.667,0h2.333v1.57a3.058,3.058,0,0,0,.1.763H13.833Zm-8.167,10.5A5.84,5.84,0,0,1,11.5,33.333h7V45H5.667Zm0,16.333H8v2.333H5.667Zm7.1,7h-7.1V60.167h7.1A6.922,6.922,0,0,0,12.766,62.5Zm6.9,3.5a4.667,4.667,0,1,1,4.667-4.667A4.667,4.667,0,0,1,19.667,66Zm28.1-3.5h-21.2a6.923,6.923,0,0,0,0-2.333h21.2a6.922,6.922,0,0,0,0,2.333Zm6.9,3.5a4.667,4.667,0,1,1,4.667-4.667A4.667,4.667,0,0,1,54.667,66Zm0-11.667a7,7,0,0,0-6.058,3.5H25.725a6.993,6.993,0,0,0-12.116,0H10.333v-3.5a1.167,1.167,0,0,0-1.167-1.167h-3.5V47.333H59.154c4.44,0,7.993,2.215,9.46,5.833H65.167A1.167,1.167,0,0,0,64,54.333v3.5H60.725a7,7,0,0,0-6.058-3.5ZM71,62.5H61.568a6.922,6.922,0,0,0,0-2.333H71Z" transform="translate(-3.333 -10)" fill="#1cc9ed"/>
      <path id="Path_118" data-name="Path 118" d="M4.5,93.333a1.167,1.167,0,0,0,0,2.333H72.167a1.167,1.167,0,0,0,0-2.333Z" transform="translate(-3.333 -35)" fill="#1cc9ed"/>
      <path id="Path_119" data-name="Path 119" d="M55.167,66.667H52.833a1.167,1.167,0,1,0,0,2.333h2.333a1.167,1.167,0,1,0,0-2.333Z" transform="translate(-17.833 -27)" fill="#1cc9ed"/>
      <path id="Path_120" data-name="Path 120" d="M31.833,66.667H29.5A1.167,1.167,0,1,0,29.5,69h2.333a1.167,1.167,0,1,0,0-2.333Z" transform="translate(-10.833 -27)" fill="#1cc9ed"/>
      <circle id="Ellipse_1" data-name="Ellipse 1" cx="2.333" cy="2.333" r="2.333" transform="translate(14 49)" fill="#1cc9ed"/>
      <circle id="Ellipse_2" data-name="Ellipse 2" cx="2.333" cy="2.333" r="2.333" transform="translate(49 49)" fill="#1cc9ed"/>
    </g>
  </g>
</svg>
