<svg xmlns="http://www.w3.org/2000/svg" xmlns:xlink="http://www.w3.org/1999/xlink" width="70" height="70" viewBox="0 0 70 70">
  <defs>
    <clipPath id="clip-path">
      <rect id="Rectangle_56" data-name="Rectangle 56" width="70" height="70" transform="translate(701 3751)" fill="#1cc9ed"/>
    </clipPath>
  </defs>
  <g id="Mask_Group_35" data-name="Mask Group 35" transform="translate(-701 -3751)" clip-path="url(#clip-path)">
    <g id="hotel" transform="translate(701 3751)">
      <path id="Path_172" data-name="Path 172" d="M23.559,4.271a.956.956,0,0,0-.957.957V7.723H20.97V5.228a.957.957,0,0,0-1.914,0v6.9a.957.957,0,1,0,1.914,0v-2.5H22.6v2.5a.957.957,0,0,0,1.914,0v-6.9a.956.956,0,0,0-.957-.957Z" fill="#1cc9ed"/>
      <path id="Path_173" data-name="Path 173" d="M30.166,4.271H26.62a.956.956,0,0,0-.957.957v6.9a.957.957,0,0,0,.957.957h3.546a.957.957,0,0,0,.957-.957v-6.9a.956.956,0,0,0-.957-.957Zm-.957,6.9H27.577V6.185h1.632Z" fill="#1cc9ed"/>
      <path id="Path_174" data-name="Path 174" d="M36.773,4.271H33.227a.957.957,0,0,0,0,1.914h.816v5.947a.957.957,0,1,0,1.914,0V6.185h.816a.957.957,0,1,0,0-1.914Z" fill="#1cc9ed"/>
      <path id="Path_175" data-name="Path 175" d="M43.38,6.185a.957.957,0,1,0,0-1.914H39.834a.956.956,0,0,0-.957.957v6.9a.957.957,0,0,0,.957.957H43.38a.957.957,0,1,0,0-1.914H40.791V9.637H43.38a.957.957,0,1,0,0-1.914H40.791V6.185Z" fill="#1cc9ed"/>
      <path id="Path_176" data-name="Path 176" d="M49.984,11.175H47.4V5.228a.957.957,0,0,0-1.914,0v6.9a.957.957,0,0,0,.957.957h3.544a.957.957,0,1,0,0-1.914Z" fill="#1cc9ed"/>
      <path id="Path_177" data-name="Path 177" d="M60.225,15.448H55.508V.955A.957.957,0,0,0,54.551,0h-39.1a.957.957,0,0,0-.957.957V15.449H9.775a.956.956,0,0,0-.957.957V69.043A.957.957,0,0,0,9.775,70H60.225a.957.957,0,0,0,.957-.957V16.406a.956.956,0,0,0-.957-.959ZM16.406,1.914H53.594V15.449H16.406ZM42.9,57.217V68.086H35.957V57.217ZM34.043,68.086H27.1V57.217h6.939Zm25.225,0H44.809V56.26a.957.957,0,0,0-.957-.957H26.147a.958.958,0,0,0-.957.957V68.086H10.732V17.362H59.268Z" fill="#1cc9ed"/>
      <path id="Path_178" data-name="Path 178" d="M25.293,20.916H15.244a.956.956,0,0,0-.957.959v6.839a.956.956,0,0,0,.957.957H25.293a.956.956,0,0,0,.957-.957V21.875a.956.956,0,0,0-.957-.959Zm-.957,6.84H16.2V22.83h8.135Z" fill="#1cc9ed"/>
      <path id="Path_179" data-name="Path 179" d="M40.024,20.916H29.975a.957.957,0,0,0-.957.959v6.839a.957.957,0,0,0,.957.957H40.024a.956.956,0,0,0,.957-.957V21.875a.956.956,0,0,0-.957-.959Zm-.957,6.84H30.932V22.83h8.135Z" fill="#1cc9ed"/>
      <path id="Path_180" data-name="Path 180" d="M43.75,21.875v6.839a.956.956,0,0,0,.957.957H54.756a.956.956,0,0,0,.957-.957V21.875a.956.956,0,0,0-.957-.957H44.707a.956.956,0,0,0-.957.957Zm1.914.957H53.8v4.926H45.664Z" fill="#1cc9ed"/>
      <path id="Path_181" data-name="Path 181" d="M25.293,31.952H15.244a.957.957,0,0,0-.957.957V39.75a.957.957,0,0,0,.957.957H25.293a.957.957,0,0,0,.957-.957V32.909A.957.957,0,0,0,25.293,31.952Zm-.957,6.841H16.2V33.866h8.135Z" fill="#1cc9ed"/>
      <path id="Path_182" data-name="Path 182" d="M40.024,31.952H29.975a.958.958,0,0,0-.957.957V39.75a.958.958,0,0,0,.957.957H40.024a.957.957,0,0,0,.957-.957V32.909a.957.957,0,0,0-.957-.957Zm-.957,6.841H30.932V33.866h8.135Z" fill="#1cc9ed"/>
      <path id="Path_183" data-name="Path 183" d="M54.756,31.952H44.707a.957.957,0,0,0-.957.957V39.75a.957.957,0,0,0,.957.957H54.756a.957.957,0,0,0,.957-.957V32.909A.957.957,0,0,0,54.756,31.952ZM53.8,38.793H45.664V33.866H53.8Z" fill="#1cc9ed"/>
      <path id="Path_184" data-name="Path 184" d="M25.293,42.989H15.244a.957.957,0,0,0-.957.957v6.841a.957.957,0,0,0,.957.957H25.293a.957.957,0,0,0,.957-.957V43.946a.957.957,0,0,0-.957-.957Zm-.957,6.841H16.2V44.9h8.135Z" fill="#1cc9ed"/>
      <path id="Path_185" data-name="Path 185" d="M40.024,42.989H29.975a.958.958,0,0,0-.957.957v6.841a.958.958,0,0,0,.957.957H40.024a.957.957,0,0,0,.957-.957V43.946a.957.957,0,0,0-.957-.957Zm-.957,6.841H30.932V44.9h8.135Z" fill="#1cc9ed"/>
      <path id="Path_186" data-name="Path 186" d="M54.756,42.989H44.707a.957.957,0,0,0-.957.957v6.841a.957.957,0,0,0,.957.957H54.756a.957.957,0,0,0,.957-.957V43.946a.957.957,0,0,0-.957-.957ZM53.8,49.83H45.664V44.9H53.8Z" fill="#1cc9ed"/>
    </g>
  </g>
</svg>
