<svg xmlns="http://www.w3.org/2000/svg" xmlns:xlink="http://www.w3.org/1999/xlink" width="70" height="70" viewBox="0 0 70 70">
  <defs>
    <clipPath id="clip-path">
      <rect id="Rectangle_54" data-name="Rectangle 54" width="70" height="70" transform="translate(882 3751)" fill="#1cc9ed"/>
    </clipPath>
  </defs>
  <g id="Mask_Group_33" data-name="Mask Group 33" transform="translate(-882 -3751)" clip-path="url(#clip-path)">
    <g id="_016-save" data-name="016-save" transform="translate(882.552 3751)">
      <path id="Path_152" data-name="Path 152" d="M48.267,42.9A23.691,23.691,0,0,0,46.434,3.248a.962.962,0,0,0-.145-.083A23.711,23.711,0,0,0,18.6,6.079,1.025,1.025,0,1,0,19.974,7.6,21.676,21.676,0,0,1,38.492,2.429a5.411,5.411,0,0,1-1.723,3.135c-1.67,1.588-8.586.218-11.1,5.71A28.486,28.486,0,0,1,24.4,14.082a5.056,5.056,0,0,0-1.37-2.8,2.448,2.448,0,0,0-1.849-.647,3.913,3.913,0,0,0-2.448,1.725,2.915,2.915,0,0,0-.234,3.254,2.821,2.821,0,0,1,.079,2.551c-.471,1.067.507,2.231.829,2.613,1.318,1.568,4.625,4.168,6.641,3.668,4.919-1.223,6.312,6.794,9.587,7.63,2.452.625,4.811,2.044,4.514,3.336-.916,3.978-4.691,3.589-7.057,4.638a16.082,16.082,0,0,0-5.247,4.224,21.618,21.618,0,0,1-3.594-1.514q.232-.542.514-1.135c1.714-3.6,1.6-5.47-2.453-8.817-1.943-1.6-1.272-3.773-.367-5.309a2.175,2.175,0,0,0-.649-2.892c-1.462-1-5.744-3.564-7.742-6.514a21.411,21.411,0,0,1,3.725-7.581,1.026,1.026,0,1,0-1.627-1.249,23.679,23.679,0,0,0,32.383,33.8.944.944,0,0,0,.232-.163Zm-.3-2.346c-.175-1.583,1.26-3.959,2.555-6.1,1.7-2.809,3.3-5.462,2.026-7.359-1.209-1.8-2.992-1.072-5.08-2.795-1.224-1.01-2.362-2.288-1.692-5.786a7.014,7.014,0,0,1,2.684-3.475,3.067,3.067,0,0,0,.934-3.425,1.613,1.613,0,0,1-.137-.934c.736-1.889-2.381-2.906-2.651-4.908A21.638,21.638,0,0,1,47.97,40.555ZM13.024,20.724a37.529,37.529,0,0,0,7.116,5.58.118.118,0,0,1,.04.158c-1.825,3.1-1.524,5.991.828,7.932C24.9,37.6,23.974,38.3,22.476,41.7a21.647,21.647,0,0,1-9.453-20.981ZM30.053,44.857a14.053,14.053,0,0,1,3.872-2.929c1.954-.866,7-.755,8.225-6.053.639-2.774-2.555-4.9-6.005-5.783-1.88-.48-4.18-9.223-10.588-7.633a3.761,3.761,0,0,1-1.95-.783,9.43,9.43,0,0,1-3.075-2.857,4.833,4.833,0,0,0-.123-3.956c-.313-.793-.32-.907-.07-1.219.185-.231.747-.935,1.045-.964a.565.565,0,0,1,.325.171c.846.716.414,3.159,2.282,3.514,2,.379,2.792-2.587,3.547-4.238C29.581,7.658,35.7,9.414,38.183,7.05A7.4,7.4,0,0,0,40.5,2.909a21.68,21.68,0,0,1,4.134,1.674c-.627,2.986,1.964,4.7,2.639,5.585a3.574,3.574,0,0,0,.2,2.142,1.015,1.015,0,0,1-.3,1.136c-1.355,1.1-3.046,2.8-3.406,4.682-.841,4.392.742,6.384,2.4,7.754,3.856,3.182,7.157-.024,2.6,7.51-1.708,2.826-3.615,5.984-2.584,8.447a21.567,21.567,0,0,1-16.132,3.019Zm0,0" fill="#1cc9ed"/>
      <path id="Path_153" data-name="Path 153" d="M16.269,59.4a1.025,1.025,0,1,0,1.663-1.2c-1.346-1.865-7.31-4.982-10.494-8.122-1.235-1.218-3.4-5.425-3.966-7.2l-1.4-5.043a.514.514,0,0,1,.982-.3c1.633,3.481,1.773,4.191,2.591,5.246a20.683,20.683,0,0,0,7.073,5.8l4.367,4.391a1.025,1.025,0,0,0,1.454-1.446L14.13,47.092l-1.737-2.7a.6.6,0,0,1,1-.659c5.962,6.268,5.677,6.079,5.984,6.228l6.4,3.108c3.493,1.7,3.243,5.4,3.326,5.659a1.026,1.026,0,0,0,2.043-.188l-.09-.982a7.886,7.886,0,0,0-4.382-6.335L20.441,48.2l-5.566-5.883a2.694,2.694,0,0,0-3.345-.438,2.66,2.66,0,0,0-1.2,2.755,18.566,18.566,0,0,1-3.067-3.107c-.589-.758-.607-1.1-2.344-4.837A2.607,2.607,0,0,0,2.006,35.2,2.566,2.566,0,0,0,.094,38.389c1.887,6.793,1.288,4.689,1.417,5.1C2.158,45.525,4.473,50.039,6,51.541a47.515,47.515,0,0,0,6.324,4.845A26.072,26.072,0,0,1,16.269,59.4Zm0,0" fill="#1cc9ed"/>
      <path id="Path_154" data-name="Path 154" d="M67.16,35.273a2.56,2.56,0,0,0-3.153,1.369c-1.755,3.773-1.774,4.123-2.365,4.883a18.55,18.55,0,0,1-3.067,3.107,2.661,2.661,0,0,0-1.2-2.755,2.7,2.7,0,0,0-3.353.445L48.464,48.2l-6.23,3.027c-4.648,2.258-4.383,7.073-4.477,7.359a1.025,1.025,0,1,0,2.042.188c.083-.262-.169-4,3.331-5.7,6.7-3.278,6.453-3.07,6.695-3.326l5.68-6a.6.6,0,0,1,1.007.651l-1.737,2.7-4.407,4.432a1.027,1.027,0,0,0,.727,1.749c.779,0,.811-.532,5.094-4.694,3.986-1.988,7.042-5.272,7.908-7.178l1.777-3.909a.514.514,0,0,1,.947.4l-1.388,5c-.568,1.774-2.732,5.98-3.966,7.2-3.176,3.132-9.129,6.244-10.485,8.11A1.025,1.025,0,1,0,52.641,59.4c1.032-1.417,7.007-4.64,10.267-7.856,1.524-1.5,3.84-6.017,4.487-8.055.129-.41-.4,1.443,1.4-5.05a2.589,2.589,0,0,0-1.638-3.164Zm0,0" fill="#1cc9ed"/>
      <path id="Path_155" data-name="Path 155" d="M30.83,61.76H18.271a2.38,2.38,0,0,0-2.378,2.378v3.486A2.38,2.38,0,0,0,18.271,70H30.83a2.38,2.38,0,0,0,2.377-2.377V64.137A2.38,2.38,0,0,0,30.83,61.76Zm.326,5.863a.327.327,0,0,1-.326.326H18.271a.327.327,0,0,1-.326-.326V64.137a.327.327,0,0,1,.326-.326H30.83a.327.327,0,0,1,.326.326Zm0,0" fill="#1cc9ed"/>
      <path id="Path_156" data-name="Path 156" d="M50.635,61.76H38.076A2.38,2.38,0,0,0,35.7,64.137v3.486A2.38,2.38,0,0,0,38.076,70H50.635a2.38,2.38,0,0,0,2.377-2.377V64.137A2.38,2.38,0,0,0,50.635,61.76Zm.326,5.863a.326.326,0,0,1-.326.326H38.076a.327.327,0,0,1-.326-.326V64.137a.327.327,0,0,1,.326-.326H50.635a.326.326,0,0,1,.326.326Zm0,0" fill="#1cc9ed"/>
    </g>
  </g>
</svg>
