<svg xmlns="http://www.w3.org/2000/svg" xmlns:xlink="http://www.w3.org/1999/xlink" width="25" height="25" viewBox="0 0 25 25">
  <defs>
    <clipPath id="clip-path">
      <rect id="Rectangle_25" data-name="Rectangle 25" width="25" height="25" transform="translate(-16503 -16778)" fill="#1cc9ed"/>
    </clipPath>
  </defs>
  <g id="vkont" transform="translate(16503 16778)" clip-path="url(#clip-path)">
    <path id="Icon_awesome-vk" data-name="Icon awesome-vk" d="M26.157,9.915c.172-.58,0-1.007-.826-1.007H22.6a1.174,1.174,0,0,0-1.188.775,22.9,22.9,0,0,1-3.36,5.595c-.636.636-.928.84-1.277.84-.172,0-.436-.2-.436-.784V9.915c0-.7-.2-1.007-.77-1.007h-4.3a.66.66,0,0,0-.7.626c0,.66.984.812,1.086,2.669v4.026c0,.882-.158,1.044-.506,1.044-.928,0-3.183-3.407-4.52-7.3C6.363,9.212,6.1,8.906,5.4,8.906H2.664c-.78,0-.937.366-.937.775,0,.726.928,4.321,4.321,9.073,2.26,3.244,5.444,5,8.34,5,1.741,0,1.954-.39,1.954-1.063,0-3.1-.158-3.393.715-3.393.4,0,1.1.2,2.724,1.768,1.857,1.857,2.163,2.687,3.2,2.687h2.733c.78,0,1.174-.39.947-1.16-.519-1.62-4.033-4.95-4.191-5.175-.4-.52-.288-.752,0-1.216,0,0,3.342-4.7,3.685-6.293Z" transform="translate(-16504.727 -16781.832)" fill="#1cc9ed"/>
  </g>
</svg>
